<?xml version="1.0" encoding="UTF-8" standalone="no"?>
<!DOCTYPE svg PUBLIC "-//W3C//DTD SVG 1.1//EN" "http://www.w3.org/Graphics/SVG/1.1/DTD/svg11.dtd">
<svg width="100%" height="100%" viewBox="0 0 512 512" version="1.1" xmlns="http://www.w3.org/2000/svg" xmlns:xlink="http://www.w3.org/1999/xlink" xml:space="preserve" xmlns:serif="http://www.serif.com/" style="fill-rule:evenodd;clip-rule:evenodd;stroke-linejoin:round;stroke-miterlimit:2;">
    <rect id="Canvas" x="0" y="0" width="512" height="512" style="fill:none;"/>
    <g id="Background" transform="matrix(0.960373,0,0,0.960373,50,49.9999)">
        <path d="M83.301,0C37.485,0 0,37.486 0,83.301L0,345.699C0,391.515 37.485,429 83.301,429L345.699,429C391.515,429 429,391.515 429,345.699L429,83.301C429,37.486 391.515,0 345.699,0L83.301,0Z" style="fill:white;fill-rule:nonzero;"/>
    </g>
    <g id="Logo" transform="matrix(0.824289,0,0,0.824289,44.982,44.982)">
        <g id="S" transform="matrix(0.515608,0,-0.0855393,0.51292,121.619,-44.4626)">
            <path d="M346.468,633.789C350.268,633.789 353.218,632.839 355.318,630.939C357.418,629.039 358.468,626.989 358.468,624.789C358.468,622.189 356.468,619.989 352.468,618.189C348.468,616.189 343.468,613.989 337.468,611.589C331.068,609.189 324.568,606.489 317.968,603.489C310.968,600.289 304.468,596.089 298.468,590.889C292.468,585.689 287.468,579.289 283.468,571.689C279.468,564.089 277.468,554.789 277.468,543.789C277.468,535.189 279.468,526.839 283.468,518.739C287.468,510.639 293.168,503.439 300.568,497.139C307.968,490.839 316.918,485.789 327.418,481.989C337.918,478.189 349.768,476.289 362.968,476.289C376.568,476.289 388.368,478.039 398.368,481.539C408.368,485.039 416.768,488.789 423.568,492.789C428.168,495.789 432.368,498.889 436.168,502.089C438.568,503.889 439.968,506.289 440.368,509.289C440.768,512.289 440.168,515.089 438.568,517.689L422.068,543.789C420.468,546.389 418.068,548.089 414.868,548.889C411.668,549.689 408.668,549.189 405.868,547.389C404.868,546.789 404.168,546.389 403.768,546.189C400.168,543.989 395.968,541.989 391.168,540.189C386.568,538.589 381.668,537.789 376.468,537.789C372.668,537.789 369.718,538.739 367.618,540.639C365.518,542.539 364.468,544.589 364.468,546.789C364.468,549.389 366.468,551.589 370.468,553.389C374.468,555.389 379.468,557.589 385.468,559.989C391.668,562.189 398.168,564.989 404.968,568.389C411.968,571.589 418.468,575.739 424.468,580.839C430.468,585.939 435.468,592.289 439.468,599.889C443.468,607.489 445.468,616.789 445.468,627.789C445.468,636.389 443.468,644.739 439.468,652.839C435.468,660.939 429.768,668.139 422.368,674.439C414.968,680.739 406.018,685.789 395.518,689.589C385.018,693.389 373.168,695.289 359.968,695.289C343.368,695.289 329.168,693.389 317.368,689.589C305.768,685.989 296.168,681.889 288.568,677.289C283.168,674.089 278.368,670.589 274.168,666.789C271.968,664.789 270.668,662.339 270.268,659.439C269.868,656.539 270.468,653.889 272.068,651.489L288.568,625.389C290.368,622.589 292.868,620.789 296.068,619.989C299.268,619.189 302.268,619.689 305.068,621.489C306.268,622.289 307.768,623.189 309.568,624.189C313.968,626.589 319.368,628.789 325.768,630.789C331.968,632.789 338.868,633.789 346.468,633.789Z" style="fill:rgb(28,27,36);fill-rule:nonzero;"/>
        </g>
        <g id="Frame" transform="matrix(1,0,0,1,1.13687e-13,-10.3659)">
            <g transform="matrix(7.78948,0,0,7.78948,84.6315,94.9974)">
                <path d="M8.708,12.833L8.708,11C8.708,9.743 9.743,8.708 11,8.708L14.667,8.708C15.426,8.708 16.042,8.092 16.042,7.333C16.042,6.574 15.426,5.958 14.667,5.958L11,5.958C8.234,5.958 5.958,8.234 5.958,11C5.958,11 5.958,12.833 5.958,12.833C5.958,13.592 6.574,14.208 7.333,14.208C8.092,14.208 8.708,13.592 8.708,12.833Z" style="fill:rgb(28,27,36);"/>
            </g>
            <g transform="matrix(7.78948,0,0,7.78948,84.6315,94.9974)">
                <path d="M5.958,31.167L5.958,33C5.958,35.766 8.234,38.042 11,38.042C11,38.042 14.667,38.042 14.667,38.042C15.426,38.042 16.042,37.426 16.042,36.667C16.042,35.908 15.426,35.292 14.667,35.292L11,35.292C9.743,35.292 8.708,34.257 8.708,33L8.708,31.167C8.708,30.408 8.092,29.792 7.333,29.792C6.574,29.792 5.958,30.408 5.958,31.167Z" style="fill:rgb(28,27,36);"/>
            </g>
            <g transform="matrix(7.78948,0,0,7.78948,84.6315,94.9974)">
                <path d="M29.333,8.708L33,8.708C34.257,8.708 35.292,9.743 35.292,11L35.292,12.833C35.292,13.592 35.908,14.208 36.667,14.208C37.426,14.208 38.042,13.592 38.042,12.833L38.042,11C38.042,8.234 35.766,5.958 33,5.958C33,5.958 29.333,5.958 29.333,5.958C28.574,5.958 27.958,6.574 27.958,7.333C27.958,8.092 28.574,8.708 29.333,8.708Z" style="fill:rgb(28,27,36);"/>
            </g>
            <g transform="matrix(7.78948,0,0,7.78948,84.6315,94.9974)">
                <path d="M29.333,38.042L33,38.042C35.766,38.042 38.042,35.766 38.042,33C38.042,33 38.042,31.167 38.042,31.167C38.042,30.408 37.426,29.792 36.667,29.792C35.908,29.792 35.292,30.408 35.292,31.167L35.292,33C35.292,34.257 34.257,35.292 33,35.292L29.333,35.292C28.574,35.292 27.958,35.908 27.958,36.667C27.958,37.426 28.574,38.042 29.333,38.042Z" style="fill:rgb(28,27,36);"/>
            </g>
        </g>
    </g>
</svg>
