<?xml version="1.0" encoding="UTF-8" standalone="no"?>
<!DOCTYPE svg PUBLIC "-//W3C//DTD SVG 1.1//EN" "http://www.w3.org/Graphics/SVG/1.1/DTD/svg11.dtd">
<svg width="100%" height="100%" viewBox="0 0 36 36" version="1.1" xmlns="http://www.w3.org/2000/svg" xmlns:xlink="http://www.w3.org/1999/xlink" xml:space="preserve" xmlns:serif="http://www.serif.com/" style="fill-rule:evenodd;clip-rule:evenodd;stroke-linejoin:round;stroke-miterlimit:2;">
    <g transform="matrix(1,0,0,1,-246.605,-388.385)">
        <path id="Logo" d="M282.605,396.305C282.605,391.934 279.056,388.385 274.685,388.385L254.525,388.385C250.154,388.385 246.605,391.934 246.605,396.305L246.605,416.465C246.605,420.836 250.154,424.385 254.525,424.385L274.685,424.385C279.056,424.385 282.605,420.836 282.605,416.465L282.605,396.305ZM268.72,415.385L270.777,415.385C272.328,415.385 273.605,414.108 273.605,412.557C273.605,412.557 273.605,411.528 273.605,411.528C273.605,411.102 273.26,410.757 272.834,410.757C272.408,410.757 272.062,411.102 272.062,411.528L272.062,412.557C272.062,413.262 271.482,413.842 270.777,413.842L268.72,413.842C268.294,413.842 267.948,414.188 267.948,414.614C267.948,415.04 268.294,415.385 268.72,415.385ZM255.605,411.528L255.605,412.557C255.605,414.108 256.882,415.385 258.434,415.385C258.434,415.385 260.491,415.385 260.491,415.385C260.917,415.385 261.262,415.04 261.262,414.614C261.262,414.188 260.917,413.842 260.491,413.842L258.434,413.842C257.729,413.842 257.148,413.262 257.148,412.557L257.148,411.528C257.148,411.102 256.802,410.757 256.377,410.757C255.951,410.757 255.605,411.102 255.605,411.528ZM263.888,408.159C264.03,408.159 264.145,408.123 264.235,408.053C264.324,407.983 264.376,407.907 264.39,407.826C264.406,407.73 264.345,407.649 264.207,407.582C264.071,407.508 263.899,407.427 263.691,407.338C263.468,407.25 263.243,407.15 263.017,407.039C262.776,406.921 262.561,406.766 262.37,406.574C262.179,406.382 262.033,406.145 261.931,405.864C261.83,405.584 261.813,405.24 261.88,404.834C261.933,404.516 262.059,404.207 262.258,403.908C262.456,403.609 262.712,403.343 263.026,403.11C263.339,402.878 263.703,402.691 264.116,402.551C264.53,402.41 264.981,402.34 265.472,402.34C265.977,402.34 266.404,402.405 266.754,402.534C267.104,402.663 267.392,402.802 267.62,402.95C267.773,403.06 267.91,403.175 268.031,403.293C268.109,403.36 268.146,403.448 268.143,403.559C268.139,403.67 268.099,403.773 268.024,403.869L267.25,404.834C267.175,404.93 267.075,404.993 266.952,405.022C266.828,405.052 266.72,405.033 266.627,404.967C266.593,404.944 266.57,404.93 266.556,404.922C266.436,404.841 266.292,404.767 266.125,404.701C265.964,404.642 265.787,404.612 265.594,404.612C265.453,404.612 265.337,404.647 265.248,404.717C265.158,404.787 265.106,404.863 265.093,404.944C265.077,405.041 265.138,405.122 265.275,405.188C265.411,405.262 265.583,405.343 265.791,405.432C266.008,405.513 266.232,405.617 266.464,405.742C266.704,405.861 266.92,406.014 267.111,406.202C267.303,406.391 267.449,406.625 267.551,406.906C267.653,407.187 267.67,407.531 267.602,407.937C267.549,408.255 267.423,408.563 267.225,408.862C267.026,409.162 266.77,409.428 266.457,409.66C266.143,409.893 265.78,410.08 265.366,410.22C264.953,410.36 264.501,410.431 264.011,410.431C263.394,410.431 262.879,410.36 262.464,410.22C262.055,410.087 261.724,409.936 261.47,409.766C261.289,409.647 261.133,409.518 261,409.378C260.931,409.304 260.898,409.213 260.901,409.106C260.904,408.999 260.942,408.901 261.016,408.812L261.79,407.848C261.874,407.745 261.978,407.678 262.102,407.649C262.226,407.619 262.334,407.638 262.427,407.704C262.466,407.734 262.517,407.767 262.577,407.804C262.726,407.893 262.913,407.974 263.138,408.048C263.356,408.122 263.606,408.159 263.888,408.159ZM268.72,398.928L270.777,398.928C271.482,398.928 272.062,399.509 272.062,400.214L272.062,401.242C272.062,401.668 272.408,402.014 272.834,402.014C273.26,402.014 273.605,401.668 273.605,401.242L273.605,400.214C273.605,398.662 272.328,397.385 270.777,397.385C270.777,397.385 268.72,397.385 268.72,397.385C268.294,397.385 267.948,397.731 267.948,398.157C267.948,398.582 268.294,398.928 268.72,398.928ZM257.148,401.242L257.148,400.214C257.148,399.509 257.729,398.928 258.434,398.928L260.491,398.928C260.917,398.928 261.262,398.582 261.262,398.157C261.262,397.731 260.917,397.385 260.491,397.385L258.434,397.385C256.882,397.385 255.605,398.662 255.605,400.214C255.605,400.214 255.605,401.242 255.605,401.242C255.605,401.668 255.951,402.014 256.377,402.014C256.802,402.014 257.148,401.668 257.148,401.242Z"/>
    </g>
</svg>
